<svg id="Capa_1" data-name="Capa 1" xmlns="http://www.w3.org/2000/svg" viewBox="0 0 172.11 32.71">
  <title>logo-usina</title>
  <g>
    <path d="M0,.67H6.05V21.11c0,3.54,1.84,5.78,5.56,5.78s5.55-2.29,5.55-5.7V.67h6.05V20.93A11.6,11.6,0,0,1,20,29.4a11.24,11.24,0,0,1-8.38,3.31A11.22,11.22,0,0,1,3.23,29.4,11.61,11.61,0,0,1,0,20.93Z"/>
    <path d="M42,20.07a11.37,11.37,0,0,0,.94,3.59c.89,1.75,2.51,3.23,5.87,3.23,3.09,0,5.46-1.39,5.46-4.13,0-2.37-1.61-3.67-5.73-4.75a21.72,21.72,0,0,1-7.31-3,7.31,7.31,0,0,1-3-6.36,8,8,0,0,1,2.73-6.1A10.82,10.82,0,0,1,48.53,0C54,0,58.3,3.05,59.6,8.65L54,9.86a5.35,5.35,0,0,0-5.46-4c-2.65,0-4.3,1.25-4.3,2.82,0,1.75,1.88,2.51,6,3.76a25.05,25.05,0,0,1,6.27,2.65,8.68,8.68,0,0,1,3.81,7.7A9.14,9.14,0,0,1,57.18,30a12.31,12.31,0,0,1-8.38,2.73,13,13,0,0,1-8.38-2.6c-2.78-2.51-3.72-6-4-9Z"/>
    <path d="M75.05,32V26.21h7V6.5h-7V.67H95.13V6.5h-7V26.21h7V32Z"/>
    <path d="M111,32V.67h5.61l11.11,20.12V.67h6.09V32h-5.51L117.08,11.92V32Z"/>
    <path d="M145,32,155.93.67h5.34L172.11,32h-6.45l-1.84-5.47H153.11L151.27,32Zm10.09-11.29h6.76L158.49,10Z"/>
  </g>
</svg>
